REM DIRINDEX 1\2\4\8,1\2\4\9,1\2\4\10,1\2\5\11,1\2\5\12,1\2\5\13,1\2\5\14,1\2\5\15,1\3\6\16,1\3\6\17,1\3\6\18,1\3\7\19,1\3\7\20,1\3\7\21,1\3\7\22,1\3\7\23
REM DIRNAME "folder01","folder02","folder03","folder04","folder05","folder06","folder07","folder08","folder09","folder10","folder11","folder12","folder13","folder14","folder15","folder16","folder17","folder18","folder19","folder20","folder21","folder22","folder23"
TITLE ""
FILE "LR_black_phrase_E_06.mp3" MP3
  TRACK 01 AUDIO
    TITLE "0:"
    INDEX 01 00:00:00
  TRACK 02 AUDIO
    TITLE "8:cjc171_01501"
    INDEX 01 00:00:18
  TRACK 03 AUDIO
    TITLE "0:"
    INDEX 01 00:01:37
  TRACK 04 AUDIO
    TITLE "9:cjc171_01502"
    INDEX 01 00:01:67
  TRACK 05 AUDIO
    TITLE "0:"
    INDEX 01 00:03:54
  TRACK 06 AUDIO
    TITLE "10:cjc171_01503"
    INDEX 01 00:04:34
  TRACK 07 AUDIO
    TITLE "0:"
    INDEX 01 00:06:19
  TRACK 08 AUDIO
    TITLE "8:cjc171_01504"
    INDEX 01 00:07:22
  TRACK 09 AUDIO
    TITLE "0:"
    INDEX 01 00:08:45
  TRACK 10 AUDIO
    TITLE "9:cjc171_01505"
    INDEX 01 00:08:74
  TRACK 11 AUDIO
    TITLE "0:"
    INDEX 01 00:11:34
  TRACK 12 AUDIO
    TITLE "10:cjc171_01506"
    INDEX 01 00:12:12
  TRACK 13 AUDIO
    TITLE "0:"
    INDEX 01 00:14:48
  TRACK 14 AUDIO
    TITLE "8:cjc171_01507"
    INDEX 01 00:15:49
  TRACK 15 AUDIO
    TITLE "0:"
    INDEX 01 00:16:60
  TRACK 16 AUDIO
    TITLE "9:cjc171_01508"
    INDEX 01 00:17:15
  TRACK 17 AUDIO
    TITLE "0:"
    INDEX 01 00:19:53
  TRACK 18 AUDIO
    TITLE "10:cjc171_01509"
    INDEX 01 00:20:33
  TRACK 19 AUDIO
    TITLE "0:"
    INDEX 01 00:22:71
  TRACK 20 AUDIO
    TITLE "8:cjc171_01510"
    INDEX 01 00:23:74
  TRACK 21 AUDIO
    TITLE "0:"
    INDEX 01 00:25:22
  TRACK 22 AUDIO
    TITLE "9:cjc171_01511"
    INDEX 01 00:25:53
  TRACK 23 AUDIO
    TITLE "0:"
    INDEX 01 00:27:68
  TRACK 24 AUDIO
    TITLE "10:cjc171_01512"
    INDEX 01 00:28:48
  TRACK 25 AUDIO
    TITLE "0:"
    INDEX 01 00:30:62
  TRACK 26 AUDIO
    TITLE "8:cjc171_01513"
    INDEX 01 00:31:68
  TRACK 27 AUDIO
    TITLE "0:"
    INDEX 01 00:33:00
  TRACK 28 AUDIO
    TITLE "9:cjc171_01514"
    INDEX 01 00:33:29
  TRACK 29 AUDIO
    TITLE "0:"
    INDEX 01 00:35:26
  TRACK 30 AUDIO
    TITLE "10:cjc171_01515"
    INDEX 01 00:36:08
  TRACK 31 AUDIO
    TITLE "0:"
    INDEX 01 00:38:03
  TRACK 32 AUDIO
    TITLE "8:cjc171_01516"
    INDEX 01 00:39:10
  TRACK 33 AUDIO
    TITLE "0:"
    INDEX 01 00:40:33
  TRACK 34 AUDIO
    TITLE "9:cjc171_01517"
    INDEX 01 00:40:65
  TRACK 35 AUDIO
    TITLE "0:"
    INDEX 01 00:43:14
  TRACK 36 AUDIO
    TITLE "10:cjc171_01518"
    INDEX 01 00:43:71
  TRACK 37 AUDIO
    TITLE "0:"
    INDEX 01 00:46:20
  TRACK 38 AUDIO
    TITLE "8:cjc171_01519"
    INDEX 01 00:47:27
  TRACK 39 AUDIO
    TITLE "0:"
    INDEX 01 00:48:35
  TRACK 40 AUDIO
    TITLE "9:cjc171_01520"
    INDEX 01 00:48:62
  TRACK 41 AUDIO
    TITLE "0:"
    INDEX 01 00:51:17
  TRACK 42 AUDIO
    TITLE "10:cjc171_01521"
    INDEX 01 00:51:72
  TRACK 43 AUDIO
    TITLE "0:"
    INDEX 01 00:54:28
  TRACK 44 AUDIO
    TITLE "8:cjc171_01522"
    INDEX 01 00:55:33
  TRACK 45 AUDIO
    TITLE "0:"
    INDEX 01 00:56:46
  TRACK 46 AUDIO
    TITLE "9:cjc171_01523"
    INDEX 01 00:57:02
  TRACK 47 AUDIO
    TITLE "0:"
    INDEX 01 00:59:54
  TRACK 48 AUDIO
    TITLE "10:cjc171_01524"
    INDEX 01 01:00:32
  TRACK 49 AUDIO
    TITLE "0:"
    INDEX 01 01:03:09
  TRACK 50 AUDIO
    TITLE "8:cjc171_01525"
    INDEX 01 01:04:12
  TRACK 51 AUDIO
    TITLE "0:"
    INDEX 01 01:05:53
  TRACK 52 AUDIO
    TITLE "9:cjc171_01526"
    INDEX 01 01:06:07
  TRACK 53 AUDIO
    TITLE "0:"
    INDEX 01 01:08:22
  TRACK 54 AUDIO
    TITLE "10:cjc171_01527"
    INDEX 01 01:09:04
  TRACK 55 AUDIO
    TITLE "0:"
    INDEX 01 01:11:16
  TRACK 56 AUDIO
    TITLE "8:cjc171_01528"
    INDEX 01 01:12:22
  TRACK 57 AUDIO
    TITLE "0:"
    INDEX 01 01:13:45
  TRACK 58 AUDIO
    TITLE "9:cjc171_01529"
    INDEX 01 01:13:74
  TRACK 59 AUDIO
    TITLE "0:"
    INDEX 01 01:15:57
  TRACK 60 AUDIO
    TITLE "10:cjc171_01530"
    INDEX 01 01:16:35
  TRACK 61 AUDIO
    TITLE "0:"
    INDEX 01 01:18:16
  TRACK 62 AUDIO
    TITLE "8:cjc171_01531"
    INDEX 01 01:19:16
  TRACK 63 AUDIO
    TITLE "0:"
    INDEX 01 01:20:27
  TRACK 64 AUDIO
    TITLE "9:cjc171_01532"
    INDEX 01 01:20:49
  TRACK 65 AUDIO
    TITLE "0:"
    INDEX 01 01:22:63
  TRACK 66 AUDIO
    TITLE "10:cjc171_01533"
    INDEX 01 01:23:31
  TRACK 67 AUDIO
    TITLE "0:"
    INDEX 01 01:25:48
  TRACK 68 AUDIO
    TITLE "8:cjc171_01534"
    INDEX 01 01:26:41
  TRACK 69 AUDIO
    TITLE "0:"
    INDEX 01 01:27:49
  TRACK 70 AUDIO
    TITLE "9:cjc171_01535"
    INDEX 01 01:27:72
  TRACK 71 AUDIO
    TITLE "0:"
    INDEX 01 01:30:35
  TRACK 72 AUDIO
    TITLE "10:cjc171_01536"
    INDEX 01 01:31:07
  TRACK 73 AUDIO
    TITLE "0:"
    INDEX 01 01:33:45
  TRACK 74 AUDIO
    TITLE "8:cjc171_01537"
    INDEX 01 01:34:41
  TRACK 75 AUDIO
    TITLE "0:"
    INDEX 01 01:35:46
  TRACK 76 AUDIO
    TITLE "9:cjc171_01538"
    INDEX 01 01:35:68
  TRACK 77 AUDIO
    TITLE "0:"
    INDEX 01 01:38:60
  TRACK 78 AUDIO
    TITLE "10:cjc171_01539"
    INDEX 01 01:39:30
  TRACK 79 AUDIO
    TITLE "0:"
    INDEX 01 01:42:23
  TRACK 80 AUDIO
    TITLE "8:cjc171_01540"
    INDEX 01 01:43:16
  TRACK 81 AUDIO
    TITLE "0:"
    INDEX 01 01:44:31
  TRACK 82 AUDIO
    TITLE "9:cjc171_01541"
    INDEX 01 01:44:53
  TRACK 83 AUDIO
    TITLE "0:"
    INDEX 01 01:47:22
  TRACK 84 AUDIO
    TITLE "10:cjc171_01542"
    INDEX 01 01:47:65
  TRACK 85 AUDIO
    TITLE "0:"
    INDEX 01 01:50:34
  TRACK 86 AUDIO
    TITLE "8:cjc171_01543"
    INDEX 01 01:51:27
  TRACK 87 AUDIO
    TITLE "0:"
    INDEX 01 01:52:45
  TRACK 88 AUDIO
    TITLE "9:cjc171_01544"
    INDEX 01 01:52:66
  TRACK 89 AUDIO
    TITLE "0:"
    INDEX 01 01:54:45
  TRACK 90 AUDIO
    TITLE "10:cjc171_01545"
    INDEX 01 01:55:16
  TRACK 91 AUDIO
    TITLE "0:"
    INDEX 01 01:56:72
  TRACK 92 AUDIO
    TITLE "8:cjc171_01546"
    INDEX 01 01:57:65
  TRACK 93 AUDIO
    TITLE "0:"
    INDEX 01 01:59:04
  TRACK 94 AUDIO
    TITLE "9:cjc171_01547"
    INDEX 01 01:59:25
  TRACK 95 AUDIO
    TITLE "0:"
    INDEX 01 02:01:38
  TRACK 96 AUDIO
    TITLE "10:cjc171_01548"
    INDEX 01 02:02:08
  TRACK 97 AUDIO
    TITLE "0:"
    INDEX 01 02:04:20
  TRACK 98 AUDIO
    TITLE "8:cjc171_01549"
    INDEX 01 02:05:14
  TRACK 99 AUDIO
    TITLE "0:"
    INDEX 01 02:06:21
  TRACK 100 AUDIO
    TITLE "9:cjc171_01550"
    INDEX 01 02:06:41
  TRACK 101 AUDIO
    TITLE "0:"
    INDEX 01 02:08:26
  TRACK 102 AUDIO
    TITLE "10:cjc171_01551"
    INDEX 01 02:08:73
  TRACK 103 AUDIO
    TITLE "0:"
    INDEX 01 02:10:60
  TRACK 104 AUDIO
    TITLE "8:cjc171_01552"
    INDEX 01 02:11:56
  TRACK 105 AUDIO
    TITLE "0:"
    INDEX 01 02:12:69
  TRACK 106 AUDIO
    TITLE "9:cjc171_01553"
    INDEX 01 02:13:11
  TRACK 107 AUDIO
    TITLE "0:"
    INDEX 01 02:15:67
  TRACK 108 AUDIO
    TITLE "10:cjc171_01554"
    INDEX 01 02:16:37
  TRACK 109 AUDIO
    TITLE "0:"
    INDEX 01 02:19:18
  TRACK 110 AUDIO
    TITLE "8:cjc171_01555"
    INDEX 01 02:20:12
  TRACK 111 AUDIO
    TITLE "0:"
    INDEX 01 02:21:27
  TRACK 112 AUDIO
    TITLE "9:cjc171_01556"
    INDEX 01 02:21:48
  TRACK 113 AUDIO
    TITLE "0:"
    INDEX 01 02:23:53
  TRACK 114 AUDIO
    TITLE "10:cjc171_01557"
    INDEX 01 02:24:25
  TRACK 115 AUDIO
    TITLE "0:"
    INDEX 01 02:26:32
  TRACK 116 AUDIO
    TITLE "8:cjc171_01558"
    INDEX 01 02:27:27
  TRACK 117 AUDIO
    TITLE "0:"
    INDEX 01 02:28:52
  TRACK 118 AUDIO
    TITLE "9:cjc171_01559"
    INDEX 01 02:28:72
  TRACK 119 AUDIO
    TITLE "0:"
    INDEX 01 02:30:59
  TRACK 120 AUDIO
    TITLE "10:cjc171_01560"
    INDEX 01 02:31:33
  TRACK 121 AUDIO
    TITLE "0:"
    INDEX 01 02:33:20
  TRACK 122 AUDIO
    TITLE "8:cjc171_01561"
    INDEX 01 02:34:21
  TRACK 123 AUDIO
    TITLE "0:"
    INDEX 01 02:35:42
  TRACK 124 AUDIO
    TITLE "9:cjc171_01562"
    INDEX 01 02:35:72
  TRACK 125 AUDIO
    TITLE "0:"
    INDEX 01 02:38:56
  TRACK 126 AUDIO
    TITLE "10:cjc171_01563"
    INDEX 01 02:39:36
  TRACK 127 AUDIO
    TITLE "0:"
    INDEX 01 02:42:23
  TRACK 128 AUDIO
    TITLE "8:cjc171_01564"
    INDEX 01 02:43:26
  TRACK 129 AUDIO
    TITLE "0:"
    INDEX 01 02:44:36
  TRACK 130 AUDIO
    TITLE "9:cjc171_01565"
    INDEX 01 02:44:67
  TRACK 131 AUDIO
    TITLE "0:"
    INDEX 01 02:47:20
  TRACK 132 AUDIO
    TITLE "10:cjc171_01566"
    INDEX 01 02:48:00
  TRACK 133 AUDIO
    TITLE "0:"
    INDEX 01 02:50:26
  TRACK 134 AUDIO
    TITLE "8:cjc171_01567"
    INDEX 01 02:51:32
  TRACK 135 AUDIO
    TITLE "0:"
    INDEX 01 02:52:57
  TRACK 136 AUDIO
    TITLE "9:cjc171_01568"
    INDEX 01 02:53:11
  TRACK 137 AUDIO
    TITLE "0:"
    INDEX 01 02:55:24
  TRACK 138 AUDIO
    TITLE "10:cjc171_01569"
    INDEX 01 02:56:05
  TRACK 139 AUDIO
    TITLE "0:"
    INDEX 01 02:58:20
  TRACK 140 AUDIO
    TITLE "8:cjc171_01570"
    INDEX 01 02:59:25
  TRACK 141 AUDIO
    TITLE "0:"
    INDEX 01 03:00:36
  TRACK 142 AUDIO
    TITLE "9:cjc171_01571"
    INDEX 01 03:00:64
  TRACK 143 AUDIO
    TITLE "0:"
    INDEX 01 03:02:67
  TRACK 144 AUDIO
    TITLE "10:cjc171_01572"
    INDEX 01 03:03:49
  TRACK 145 AUDIO
    TITLE "0:"
    INDEX 01 03:05:49
  TRACK 146 AUDIO
    TITLE "8:cjc171_01573"
    INDEX 01 03:06:55
  TRACK 147 AUDIO
    TITLE "0:"
    INDEX 01 03:08:07
  TRACK 148 AUDIO
    TITLE "9:cjc171_01574"
    INDEX 01 03:08:38
  TRACK 149 AUDIO
    TITLE "0:"
    INDEX 01 03:11:09
  TRACK 150 AUDIO
    TITLE "10:cjc171_01575"
    INDEX 01 03:11:62
  TRACK 151 AUDIO
    TITLE "0:"
    INDEX 01 03:14:35
  TRACK 152 AUDIO
    TITLE "8:cjc171_01576"
    INDEX 01 03:15:38
  TRACK 153 AUDIO
    TITLE "0:"
    INDEX 01 03:17:00
  TRACK 154 AUDIO
    TITLE "9:cjc171_01577"
    INDEX 01 03:17:29
  TRACK 155 AUDIO
    TITLE "0:"
    INDEX 01 03:20:33
  TRACK 156 AUDIO
    TITLE "10:cjc171_01578"
    INDEX 01 03:21:11
  TRACK 157 AUDIO
    TITLE "0:"
    INDEX 01 03:24:15
  TRACK 158 AUDIO
    TITLE "8:cjc171_01579"
    INDEX 01 03:25:21
  TRACK 159 AUDIO
    TITLE "0:"
    INDEX 01 03:26:44
  TRACK 160 AUDIO
    TITLE "9:cjc171_01580"
    INDEX 01 03:27:00
  TRACK 161 AUDIO
    TITLE "0:"
    INDEX 01 03:29:46
  TRACK 162 AUDIO
    TITLE "10:cjc171_01581"
    INDEX 01 03:30:26
  TRACK 163 AUDIO
    TITLE "0:"
    INDEX 01 03:32:72
  TRACK 164 AUDIO
    TITLE "8:cjc171_01582"
    INDEX 01 03:34:00
  TRACK 165 AUDIO
    TITLE "0:"
    INDEX 01 03:35:19
  TRACK 166 AUDIO
    TITLE "9:cjc171_01583"
    INDEX 01 03:35:45
  TRACK 167 AUDIO
    TITLE "0:"
    INDEX 01 03:37:45
  TRACK 168 AUDIO
    TITLE "10:cjc171_01584"
    INDEX 01 03:38:23
  TRACK 169 AUDIO
    TITLE "0:"
    INDEX 01 03:40:20
  TRACK 170 AUDIO
    TITLE "8:cjc171_01585"
    INDEX 01 03:41:26
  TRACK 171 AUDIO
    TITLE "0:"
    INDEX 01 03:42:43
  TRACK 172 AUDIO
    TITLE "9:cjc171_01586"
    INDEX 01 03:42:70
  TRACK 173 AUDIO
    TITLE "0:"
    INDEX 01 03:45:22
  TRACK 174 AUDIO
    TITLE "10:cjc171_01587"
    INDEX 01 03:46:01
  TRACK 175 AUDIO
    TITLE "0:"
    INDEX 01 03:48:30
  TRACK 176 AUDIO
    TITLE "8:cjc171_01588"
    INDEX 01 03:49:35
  TRACK 177 AUDIO
    TITLE "0:"
    INDEX 01 03:50:54
  TRACK 178 AUDIO
    TITLE "9:cjc171_01589"
    INDEX 01 03:51:06
  TRACK 179 AUDIO
    TITLE "0:"
    INDEX 01 03:53:54
  TRACK 180 AUDIO
    TITLE "10:cjc171_01590"
    INDEX 01 03:54:36
  TRACK 181 AUDIO
    TITLE "0:"
    INDEX 01 03:57:07
  TRACK 182 AUDIO
    TITLE "8:cjc171_01591"
    INDEX 01 03:58:07
  TRACK 183 AUDIO
    TITLE "0:"
    INDEX 01 03:59:28
  TRACK 184 AUDIO
    TITLE "9:cjc171_01592"
    INDEX 01 03:59:49
  TRACK 185 AUDIO
    TITLE "0:"
    INDEX 01 04:02:04
  TRACK 186 AUDIO
    TITLE "10:cjc171_01593"
    INDEX 01 04:02:57
  TRACK 187 AUDIO
    TITLE "0:"
    INDEX 01 04:05:09
  TRACK 188 AUDIO
    TITLE "8:cjc171_01594"
    INDEX 01 04:06:10
  TRACK 189 AUDIO
    TITLE "0:"
    INDEX 01 04:07:29
  TRACK 190 AUDIO
    TITLE "9:cjc171_01595"
    INDEX 01 04:07:51
  TRACK 191 AUDIO
    TITLE "0:"
    INDEX 01 04:09:51
  TRACK 192 AUDIO
    TITLE "10:cjc171_01596"
    INDEX 01 04:10:21
  TRACK 193 AUDIO
    TITLE "0:"
    INDEX 01 04:12:24
  TRACK 194 AUDIO
    TITLE "8:cjc171_01597"
    INDEX 01 04:13:20
  TRACK 195 AUDIO
    TITLE "0:"
    INDEX 01 04:14:33
  TRACK 196 AUDIO
    TITLE "9:cjc171_01598"
    INDEX 01 04:14:51
  TRACK 197 AUDIO
    TITLE "0:"
    INDEX 01 04:17:29
  TRACK 198 AUDIO
    TITLE "10:cjc171_01599"
    INDEX 01 04:17:74
  TRACK 199 AUDIO
    TITLE "0:"
    INDEX 01 04:20:51
  TRACK 200 AUDIO
    TITLE "8:cjc171_01600"
    INDEX 01 04:21:47
  TRACK 201 AUDIO
    TITLE "0:"
    INDEX 01 04:22:52
  TRACK 202 AUDIO
    TITLE "9:cjc171_01601"
    INDEX 01 04:22:72
  TRACK 203 AUDIO
    TITLE "0:"
    INDEX 01 04:25:07
  TRACK 204 AUDIO
    TITLE "10:cjc171_01602"
    INDEX 01 04:25:52
  TRACK 205 AUDIO
    TITLE "0:"
    INDEX 01 04:27:61
  TRACK 206 AUDIO
    TITLE "8:cjc171_01603"
    INDEX 01 04:28:57
  TRACK 207 AUDIO
    TITLE "0:"
    INDEX 01 04:30:06
  TRACK 208 AUDIO
    TITLE "9:cjc171_01604"
    INDEX 01 04:30:28
  TRACK 209 AUDIO
    TITLE "0:"
    INDEX 01 04:32:56
  TRACK 210 AUDIO
    TITLE "10:cjc171_01605"
    INDEX 01 04:33:26
  TRACK 211 AUDIO
    TITLE "0:"
    INDEX 01 04:35:57
  TRACK 212 AUDIO
    TITLE "8:cjc171_01606"
    INDEX 01 04:36:52
  TRACK 213 AUDIO
    TITLE "0:"
    INDEX 01 04:37:54
  TRACK 214 AUDIO
    TITLE "9:cjc171_01607"
    INDEX 01 04:37:71
  TRACK 215 AUDIO
    TITLE "0:"
    INDEX 01 04:39:54
  TRACK 216 AUDIO
    TITLE "10:cjc171_01608"
    INDEX 01 04:40:28
  TRACK 217 AUDIO
    TITLE "0:"
    INDEX 01 04:42:10
  TRACK 218 AUDIO
    TITLE "8:cjc171_01609"
    INDEX 01 04:43:07
  TRACK 219 AUDIO
    TITLE "0:"
    INDEX 01 04:44:14
  TRACK 220 AUDIO
    TITLE "9:cjc171_01610"
    INDEX 01 04:44:32
  TRACK 221 AUDIO
    TITLE "0:"
    INDEX 01 04:47:05
  TRACK 222 AUDIO
    TITLE "10:cjc171_01611"
    INDEX 01 04:47:50
  TRACK 223 AUDIO
    TITLE "0:"
    INDEX 01 04:50:21
  TRACK 224 AUDIO
    TITLE "8:cjc171_01612"
    INDEX 01 04:51:18
  TRACK 225 AUDIO
    TITLE "0:"
    INDEX 01 04:52:43
  TRACK 226 AUDIO
    TITLE "9:cjc171_01613"
    INDEX 01 04:52:59
  TRACK 227 AUDIO
    TITLE "0:"
    INDEX 01 04:54:50
  TRACK 228 AUDIO
    TITLE "10:cjc171_01614"
    INDEX 01 04:55:20
  TRACK 229 AUDIO
    TITLE "0:"
    INDEX 01 04:57:09
  TRACK 230 AUDIO
    TITLE "8:cjc171_01615"
    INDEX 01 04:58:05
  TRACK 231 AUDIO
    TITLE "0:"
    INDEX 01 04:59:14
  TRACK 232 AUDIO
    TITLE "9:cjc171_01616"
    INDEX 01 04:59:36
  TRACK 233 AUDIO
    TITLE "0:"
    INDEX 01 05:01:15
  TRACK 234 AUDIO
    TITLE "10:cjc171_01617"
    INDEX 01 05:01:60
  TRACK 235 AUDIO
    TITLE "0:"
    INDEX 01 05:03:41
  TRACK 236 AUDIO
    TITLE "8:cjc171_01618"
    INDEX 01 05:04:35
  TRACK 237 AUDIO
    TITLE "0:"
    INDEX 01 05:05:62
  TRACK 238 AUDIO
    TITLE "9:cjc171_01619"
    INDEX 01 05:06:10
  TRACK 239 AUDIO
    TITLE "0:"
    INDEX 01 05:08:48
  TRACK 240 AUDIO
    TITLE "10:cjc171_01620"
    INDEX 01 05:09:20
  TRACK 241 AUDIO
    TITLE "0:"
    INDEX 01 05:11:58
  TRACK 242 AUDIO
    TITLE "8:cjc171_01621"
    INDEX 01 05:12:60
  TRACK 243 AUDIO
    TITLE "0:"
    INDEX 01 05:13:73
  TRACK 244 AUDIO
    TITLE "9:cjc171_01622"
    INDEX 01 05:14:27
  TRACK 245 AUDIO
    TITLE "0:"
    INDEX 01 05:17:12
  TRACK 246 AUDIO
    TITLE "10:cjc171_01623"
    INDEX 01 05:17:67
  TRACK 247 AUDIO
    TITLE "0:"
    INDEX 01 05:20:51
  TRACK 248 AUDIO
    TITLE "8:cjc171_01624"
    INDEX 01 05:21:57
  TRACK 249 AUDIO
    TITLE "0:"
    INDEX 01 05:23:01
  TRACK 250 AUDIO
    TITLE "9:cjc171_01625"
    INDEX 01 05:23:30
  TRACK 251 AUDIO
    TITLE "0:"
    INDEX 01 05:25:57
  TRACK 252 AUDIO
    TITLE "10:cjc171_01626"
    INDEX 01 05:26:36
  TRACK 253 AUDIO
    TITLE "0:"
    INDEX 01 05:28:65
  TRACK 254 AUDIO
    TITLE "8:cjc171_01627"
    INDEX 01 05:29:70
  TRACK 255 AUDIO
    TITLE "0:"
    INDEX 01 05:31:32
  TRACK 256 AUDIO
    TITLE "9:cjc171_01628"
    INDEX 01 05:31:59
  TRACK 257 AUDIO
    TITLE "0:"
    INDEX 01 05:34:61
  TRACK 258 AUDIO
    TITLE "10:cjc171_01629"
    INDEX 01 05:35:39
  TRACK 259 AUDIO
    TITLE "0:"
    INDEX 01 05:38:42
  TRACK 260 AUDIO
    TITLE "8:cjc171_01630"
    INDEX 01 05:39:45
  TRACK 261 AUDIO
    TITLE "0:"
    INDEX 01 05:40:66
  TRACK 262 AUDIO
    TITLE "9:cjc171_01631"
    INDEX 01 05:41:22
  TRACK 263 AUDIO
    TITLE "0:"
    INDEX 01 05:43:17
  TRACK 264 AUDIO
    TITLE "10:cjc171_01632"
    INDEX 01 05:43:72
  TRACK 265 AUDIO
    TITLE "0:"
    INDEX 01 05:45:67
  TRACK 266 AUDIO
    TITLE "8:cjc171_01633"
    INDEX 01 05:46:70
  TRACK 267 AUDIO
    TITLE "0:"
    INDEX 01 05:48:09
  TRACK 268 AUDIO
    TITLE "9:cjc171_01634"
    INDEX 01 05:48:40
  TRACK 269 AUDIO
    TITLE "0:"
    INDEX 01 05:50:55
  TRACK 270 AUDIO
    TITLE "10:cjc171_01635"
    INDEX 01 05:51:34
  TRACK 271 AUDIO
    TITLE "0:"
    INDEX 01 05:53:49
  TRACK 272 AUDIO
    TITLE "8:cjc171_01636"
    INDEX 01 05:54:54
  TRACK 273 AUDIO
    TITLE "0:"
    INDEX 01 05:55:73
  TRACK 274 AUDIO
    TITLE "9:cjc171_01637"
    INDEX 01 05:56:28
  TRACK 275 AUDIO
    TITLE "0:"
    INDEX 01 05:58:17
  TRACK 276 AUDIO
    TITLE "10:cjc171_01638"
    INDEX 01 05:58:70
  TRACK 277 AUDIO
    TITLE "0:"
    INDEX 01 06:00:59
  TRACK 278 AUDIO
    TITLE "8:cjc171_01639"
    INDEX 01 06:01:62
  TRACK 279 AUDIO
    TITLE "0:"
    INDEX 01 06:02:67
  TRACK 280 AUDIO
    TITLE "9:cjc171_01640"
    INDEX 01 06:03:20
  TRACK 281 AUDIO
    TITLE "0:"
    INDEX 01 06:05:70
  TRACK 282 AUDIO
    TITLE "10:cjc171_01641"
    INDEX 01 06:06:50
  TRACK 283 AUDIO
    TITLE "0:"
    INDEX 01 06:09:26
  TRACK 284 AUDIO
    TITLE "8:cjc171_01642"
    INDEX 01 06:10:30
  TRACK 285 AUDIO
    TITLE "0:"
    INDEX 01 06:11:29
  TRACK 286 AUDIO
    TITLE "9:cjc171_01643"
    INDEX 01 06:11:61
  TRACK 287 AUDIO
    TITLE "0:"
    INDEX 01 06:13:52
  TRACK 288 AUDIO
    TITLE "10:cjc171_01644"
    INDEX 01 06:14:31
  TRACK 289 AUDIO
    TITLE "0:"
    INDEX 01 06:16:24
  TRACK 290 AUDIO
    TITLE "8:cjc171_01645"
    INDEX 01 06:17:30
  TRACK 291 AUDIO
    TITLE "0:"
    INDEX 01 06:18:43
  TRACK 292 AUDIO
    TITLE "9:cjc171_01646"
    INDEX 01 06:18:72
  TRACK 293 AUDIO
    TITLE "0:"
    INDEX 01 06:21:43
  TRACK 294 AUDIO
    TITLE "10:cjc171_01647"
    INDEX 01 06:22:23
  TRACK 295 AUDIO
    TITLE "0:"
    INDEX 01 06:24:67
  TRACK 296 AUDIO
    TITLE "8:cjc171_01648"
    INDEX 01 06:25:72
  TRACK 297 AUDIO
    TITLE "0:"
    INDEX 01 06:27:15
  TRACK 298 AUDIO
    TITLE "9:cjc171_01649"
    INDEX 01 06:27:44
  TRACK 299 AUDIO
    TITLE "0:"
    INDEX 01 06:29:27
  TRACK 300 AUDIO
    TITLE "10:cjc171_01650"
    INDEX 01 06:30:07
  TRACK 301 AUDIO
    TITLE "0:"
    INDEX 01 06:31:67
  TRACK 302 AUDIO
    TITLE "8:cjc171_01651"
    INDEX 01 06:32:65
  TRACK 303 AUDIO
    TITLE "0:"
    INDEX 01 06:34:01
  TRACK 304 AUDIO
    TITLE "9:cjc171_01652"
    INDEX 01 06:34:22
  TRACK 305 AUDIO
    TITLE "0:"
    INDEX 01 06:36:13
  TRACK 306 AUDIO
    TITLE "10:cjc171_01653"
    INDEX 01 06:36:61
  TRACK 307 AUDIO
    TITLE "0:"
    INDEX 01 06:38:50
  TRACK 308 AUDIO
    TITLE "8:cjc171_01654"
    INDEX 01 06:39:45
  TRACK 309 AUDIO
    TITLE "0:"
    INDEX 01 06:40:45
  TRACK 310 AUDIO
    TITLE "9:cjc171_01655"
    INDEX 01 06:40:64
  TRACK 311 AUDIO
    TITLE "0:"
    INDEX 01 06:42:59
  TRACK 312 AUDIO
    TITLE "10:cjc171_01656"
    INDEX 01 06:43:29
  TRACK 313 AUDIO
    TITLE "0:"
    INDEX 01 06:45:22
  TRACK 314 AUDIO
    TITLE "8:cjc171_01657"
    INDEX 01 06:46:20
  TRACK 315 AUDIO
    TITLE "0:"
    INDEX 01 06:47:29
  TRACK 316 AUDIO
    TITLE "9:cjc171_01658"
    INDEX 01 06:47:49
  TRACK 317 AUDIO
    TITLE "0:"
    INDEX 01 06:50:23
  TRACK 318 AUDIO
    TITLE "10:cjc171_01659"
    INDEX 01 06:50:70
  TRACK 319 AUDIO
    TITLE "0:"
    INDEX 01 06:53:45
  TRACK 320 AUDIO
    TITLE "8:cjc171_01660"
    INDEX 01 06:54:43
  TRACK 321 AUDIO
    TITLE "0:"
    INDEX 01 06:55:68
  TRACK 322 AUDIO
    TITLE "9:cjc171_01661"
    INDEX 01 06:56:16
  TRACK 323 AUDIO
    TITLE "0:"
    INDEX 01 06:58:37
  TRACK 324 AUDIO
    TITLE "10:cjc171_01662"
    INDEX 01 06:59:13
  TRACK 325 AUDIO
    TITLE "0:"
    INDEX 01 07:01:31
  TRACK 326 AUDIO
    TITLE "8:cjc171_01663"
    INDEX 01 07:02:32
  TRACK 327 AUDIO
    TITLE "0:"
    INDEX 01 07:03:30
  TRACK 328 AUDIO
    TITLE "9:cjc171_01664"
    INDEX 01 07:03:57
  TRACK 329 AUDIO
    TITLE "0:"
    INDEX 01 07:05:48
  TRACK 330 AUDIO
    TITLE "10:cjc171_01665"
    INDEX 01 07:06:22
  TRACK 331 AUDIO
    TITLE "0:"
    INDEX 01 07:08:12
  TRACK 332 AUDIO
    TITLE "8:cjc171_01666"
    INDEX 01 07:09:07
  TRACK 333 AUDIO
    TITLE "0:"
    INDEX 01 07:10:22
  TRACK 334 AUDIO
    TITLE "9:cjc171_01667"
    INDEX 01 07:10:46
  TRACK 335 AUDIO
    TITLE "0:"
    INDEX 01 07:13:07
  TRACK 336 AUDIO
    TITLE "10:cjc171_01668"
    INDEX 01 07:13:52
  TRACK 337 AUDIO
    TITLE "0:"
    INDEX 01 07:16:17
  TRACK 338 AUDIO
    TITLE "8:cjc171_01669"
    INDEX 01 07:17:12
  TRACK 339 AUDIO
    TITLE "0:"
    INDEX 01 07:18:10
  TRACK 340 AUDIO
    TITLE "9:cjc171_01670"
    INDEX 01 07:18:33
  TRACK 341 AUDIO
    TITLE "0:"
    INDEX 01 07:20:15
  TRACK 342 AUDIO
    TITLE "10:cjc171_01671"
    INDEX 01 07:20:62
  TRACK 343 AUDIO
    TITLE "0:"
    INDEX 01 07:22:39
  TRACK 344 AUDIO
    TITLE "8:cjc171_01672"
    INDEX 01 07:23:33
  TRACK 345 AUDIO
    TITLE "0:"
    INDEX 01 07:24:38
  TRACK 346 AUDIO
    TITLE "9:cjc171_01673"
    INDEX 01 07:24:67
  TRACK 347 AUDIO
    TITLE "0:"
    INDEX 01 07:26:37
  TRACK 348 AUDIO
    TITLE "10:cjc171_01674"
    INDEX 01 07:27:13
  TRACK 349 AUDIO
    TITLE "0:"
    INDEX 01 07:28:57
  TRACK 350 AUDIO
    TITLE "8:cjc171_01675"
    INDEX 01 07:29:53
  TRACK 351 AUDIO
    TITLE "0:"
    INDEX 01 07:30:68
  TRACK 352 AUDIO
    TITLE "9:cjc171_01676"
    INDEX 01 07:31:15
  TRACK 353 AUDIO
    TITLE "0:"
    INDEX 01 07:33:58
  TRACK 354 AUDIO
    TITLE "10:cjc171_01677"
    INDEX 01 07:34:32
  TRACK 355 AUDIO
    TITLE "0:"
    INDEX 01 07:37:01
  TRACK 356 AUDIO
    TITLE "8:cjc171_01678"
    INDEX 01 07:38:01
  TRACK 357 AUDIO
    TITLE "0:"
    INDEX 01 07:39:10
  TRACK 358 AUDIO
    TITLE "9:cjc171_01679"
    INDEX 01 07:39:30
  TRACK 359 AUDIO
    TITLE "0:"
    INDEX 01 07:41:66
  TRACK 360 AUDIO
    TITLE "10:cjc171_01680"
    INDEX 01 07:42:34
  TRACK 361 AUDIO
    TITLE "0:"
    INDEX 01 07:44:70
  TRACK 362 AUDIO
    TITLE "8:cjc171_01681"
    INDEX 01 07:45:70
  TRACK 363 AUDIO
    TITLE "0:"
    INDEX 01 07:46:73
  TRACK 364 AUDIO
    TITLE "9:cjc171_01682"
    INDEX 01 07:47:29
  TRACK 365 AUDIO
    TITLE "0:"
    INDEX 01 07:49:26
  TRACK 366 AUDIO
    TITLE "10:cjc171_01683"
    INDEX 01 07:50:04
  TRACK 367 AUDIO
    TITLE "0:"
    INDEX 01 07:52:01
  TRACK 368 AUDIO
    TITLE "8:cjc171_01684"
    INDEX 01 07:53:06
  TRACK 369 AUDIO
    TITLE "0:"
    INDEX 01 07:54:29
  TRACK 370 AUDIO
    TITLE "9:cjc171_01685"
    INDEX 01 07:54:59
  TRACK 371 AUDIO
    TITLE "0:"
    INDEX 01 07:57:18
  TRACK 372 AUDIO
    TITLE "10:cjc171_01686"
    INDEX 01 07:57:73
  TRACK 373 AUDIO
    TITLE "0:"
    INDEX 01 08:00:30
  TRACK 374 AUDIO
    TITLE "8:cjc171_01687"
    INDEX 01 08:01:35
  TRACK 375 AUDIO
    TITLE "0:"
    INDEX 01 08:02:43
  TRACK 376 AUDIO
    TITLE "9:cjc171_01688"
    INDEX 01 08:02:70
  TRACK 377 AUDIO
    TITLE "0:"
    INDEX 01 08:04:55
  TRACK 378 AUDIO
    TITLE "10:cjc171_01689"
    INDEX 01 08:05:35
  TRACK 379 AUDIO
    TITLE "0:"
    INDEX 01 08:07:20
  TRACK 380 AUDIO
    TITLE "8:cjc171_01690"
    INDEX 01 08:08:25
  TRACK 381 AUDIO
    TITLE "0:"
    INDEX 01 08:09:39
  TRACK 382 AUDIO
    TITLE "9:cjc171_01691"
    INDEX 01 08:09:68
  TRACK 383 AUDIO
    TITLE "0:"
    INDEX 01 08:12:06
  TRACK 384 AUDIO
    TITLE "10:cjc171_01692"
    INDEX 01 08:12:57
  TRACK 385 AUDIO
    TITLE "0:"
    INDEX 01 08:14:69
  TRACK 386 AUDIO
    TITLE "8:cjc171_01693"
    INDEX 01 08:15:73
  TRACK 387 AUDIO
    TITLE "0:"
    INDEX 01 08:17:19
  TRACK 388 AUDIO
    TITLE "9:cjc171_01694"
    INDEX 01 08:17:48
  TRACK 389 AUDIO
    TITLE "0:"
    INDEX 01 08:19:49
  TRACK 390 AUDIO
    TITLE "10:cjc171_01695"
    INDEX 01 08:20:27
  TRACK 391 AUDIO
    TITLE "0:"
    INDEX 01 08:22:28
  TRACK 392 AUDIO
    TITLE "8:cjc171_01696"
    INDEX 01 08:23:33
  TRACK 393 AUDIO
    TITLE "0:"
    INDEX 01 08:24:44
  TRACK 394 AUDIO
    TITLE "9:cjc171_01697"
    INDEX 01 08:25:00
  TRACK 395 AUDIO
    TITLE "0:"
    INDEX 01 08:26:66
  TRACK 396 AUDIO
    TITLE "10:cjc171_01698"
    INDEX 01 08:27:44
  TRACK 397 AUDIO
    TITLE "0:"
    INDEX 01 08:29:35
  TRACK 398 AUDIO
    TITLE "8:cjc171_01699"
    INDEX 01 08:30:39
  TRACK 399 AUDIO
    TITLE "0:"
    INDEX 01 08:31:58
  TRACK 400 AUDIO
    TITLE "9:cjc171_01700"
    INDEX 01 08:32:12
  TRACK 401 AUDIO
    TITLE "0:"
    INDEX 01 08:34:41
  TRACK 402 AUDIO
    TITLE "10:cjc171_01701"
    INDEX 01 08:35:20
  TRACK 403 AUDIO
    TITLE "0:"
    INDEX 01 08:37:47
  TRACK 404 AUDIO
    TITLE "8:cjc171_01702"
    INDEX 01 08:38:52
  TRACK 405 AUDIO
    TITLE "0:"
    INDEX 01 08:39:69
  TRACK 406 AUDIO
    TITLE "9:cjc171_01703"
    INDEX 01 08:40:22
  TRACK 407 AUDIO
    TITLE "0:"
    INDEX 01 08:42:34
  TRACK 408 AUDIO
    TITLE "10:cjc171_01704"
    INDEX 01 08:43:12
  TRACK 409 AUDIO
    TITLE "0:"
    INDEX 01 08:45:23
  TRACK 410 AUDIO
    TITLE "8:cjc171_01705"
    INDEX 01 08:46:28
  TRACK 411 AUDIO
    TITLE "0:"
    INDEX 01 08:47:55
  TRACK 412 AUDIO
    TITLE "9:cjc171_01706"
    INDEX 01 08:48:07
  TRACK 413 AUDIO
    TITLE "0:"
    INDEX 01 08:50:30
  TRACK 414 AUDIO
    TITLE "10:cjc171_01707"
    INDEX 01 08:51:10
  TRACK 415 AUDIO
    TITLE "0:"
    INDEX 01 08:53:32
  TRACK 416 AUDIO
    TITLE "8:cjc171_01708"
    INDEX 01 08:54:37
  TRACK 417 AUDIO
    TITLE "0:"
    INDEX 01 08:55:47
  TRACK 418 AUDIO
    TITLE "9:cjc171_01709"
    INDEX 01 08:55:74
  TRACK 419 AUDIO
    TITLE "0:"
    INDEX 01 08:58:02
  TRACK 420 AUDIO
    TITLE "10:cjc171_01710"
    INDEX 01 08:58:61
  TRACK 421 AUDIO
    TITLE "0:"
    INDEX 01 09:00:60
  TRACK 422 AUDIO
    TITLE "8:cjc171_01711"
    INDEX 01 09:01:61
  TRACK 423 AUDIO
    TITLE "0:"
    INDEX 01 09:03:09
  TRACK 424 AUDIO
    TITLE "9:cjc171_01712"
    INDEX 01 09:03:30
  TRACK 425 AUDIO
    TITLE "0:"
    INDEX 01 09:05:43
  TRACK 426 AUDIO
    TITLE "10:cjc171_01713"
    INDEX 01 09:06:13
  TRACK 427 AUDIO
    TITLE "0:"
    INDEX 01 09:08:26
  TRACK 428 AUDIO
    TITLE "8:cjc171_01714"
    INDEX 01 09:09:19
  TRACK 429 AUDIO
    TITLE "0:"
    INDEX 01 09:10:32
  TRACK 430 AUDIO
    TITLE "9:cjc171_01715"
    INDEX 01 09:10:52
  TRACK 431 AUDIO
    TITLE "0:"
    INDEX 01 09:12:73
  TRACK 432 AUDIO
    TITLE "10:cjc171_01716"
    INDEX 01 09:13:41
  TRACK 433 AUDIO
    TITLE "0:"
    INDEX 01 09:15:57
  TRACK 434 AUDIO
    TITLE "8:cjc171_01717"
    INDEX 01 09:16:53
  TRACK 435 AUDIO
    TITLE "0:"
    INDEX 01 09:17:72
  TRACK 436 AUDIO
    TITLE "9:cjc171_01718"
    INDEX 01 09:18:18
  TRACK 437 AUDIO
    TITLE "0:"
    INDEX 01 09:20:01
  TRACK 438 AUDIO
    TITLE "10:cjc171_01719"
    INDEX 01 09:20:48
  TRACK 439 AUDIO
    TITLE "0:"
    INDEX 01 09:22:32
  TRACK 440 AUDIO
    TITLE "8:cjc171_01720"
    INDEX 01 09:23:27
  TRACK 441 AUDIO
    TITLE "0:"
    INDEX 01 09:24:60
  TRACK 442 AUDIO
    TITLE "9:cjc171_01721"
    INDEX 01 09:25:05
  TRACK 443 AUDIO
    TITLE "0:"
    INDEX 01 09:27:54
  TRACK 444 AUDIO
    TITLE "10:cjc171_01722"
    INDEX 01 09:28:38
  TRACK 445 AUDIO
    TITLE "0:"
    INDEX 01 09:31:21
  TRACK 446 AUDIO
    TITLE "8:cjc171_01723"
    INDEX 01 09:32:24
  TRACK 447 AUDIO
    TITLE "0:"
    INDEX 01 09:33:51
  TRACK 448 AUDIO
    TITLE "9:cjc171_01724"
    INDEX 01 09:34:00
  TRACK 449 AUDIO
    TITLE "0:"
    INDEX 01 09:36:51
  TRACK 450 AUDIO
    TITLE "10:cjc171_01725"
    INDEX 01 09:37:21
  TRACK 451 AUDIO
    TITLE "0:"
    INDEX 01 09:39:73
  TRACK 452 AUDIO
    TITLE "8:cjc171_01726"
    INDEX 01 09:40:69
  TRACK 453 AUDIO
    TITLE "0:"
    INDEX 01 09:42:09
  TRACK 454 AUDIO
    TITLE "9:cjc171_01727"
    INDEX 01 09:42:40
  TRACK 455 AUDIO
    TITLE "0:"
    INDEX 01 09:44:57
  TRACK 456 AUDIO
    TITLE "10:cjc171_01728"
    INDEX 01 09:45:35
  TRACK 457 AUDIO
    TITLE "0:"
    INDEX 01 09:47:51
  TRACK 458 AUDIO
    TITLE "8:cjc171_01729"
    INDEX 01 09:48:51
  TRACK 459 AUDIO
    TITLE "0:"
    INDEX 01 09:49:52
  TRACK 460 AUDIO
    TITLE "9:cjc171_01730"
    INDEX 01 09:49:72
  TRACK 461 AUDIO
    TITLE "0:"
    INDEX 01 09:52:01
  TRACK 462 AUDIO
    TITLE "10:cjc171_01731"
    INDEX 01 09:52:43
  TRACK 463 AUDIO
    TITLE "0:"
    INDEX 01 09:54:47
  TRACK 464 AUDIO
    TITLE "8:cjc171_01732"
    INDEX 01 09:55:43
  TRACK 465 AUDIO
    TITLE "0:"
    INDEX 01 09:56:50
  TRACK 466 AUDIO
    TITLE "9:cjc171_01733"
    INDEX 01 09:56:74
  TRACK 467 AUDIO
    TITLE "0:"
    INDEX 01 09:58:47
  TRACK 468 AUDIO
    TITLE "10:cjc171_01734"
    INDEX 01 09:59:17
  TRACK 469 AUDIO
    TITLE "0:"
    INDEX 01 10:00:68
  TRACK 470 AUDIO
    TITLE "8:cjc171_01735"
    INDEX 01 10:01:65
  TRACK 471 AUDIO
    TITLE "0:"
    INDEX 01 10:03:11
  TRACK 472 AUDIO
    TITLE "9:cjc171_01736"
    INDEX 01 10:03:35
  TRACK 473 AUDIO
    TITLE "0:"
    INDEX 01 10:05:53
  TRACK 474 AUDIO
    TITLE "10:cjc171_01737"
    INDEX 01 10:06:29
  TRACK 475 AUDIO
    TITLE "0:"
    INDEX 01 10:08:46
  TRACK 476 AUDIO
    TITLE "8:cjc171_01738"
    INDEX 01 10:09:39
  TRACK 477 AUDIO
    TITLE "0:"
    INDEX 01 10:10:64
  TRACK 478 AUDIO
    TITLE "9:cjc171_01739"
    INDEX 01 10:11:07
  TRACK 479 AUDIO
    TITLE "0:"
    INDEX 01 10:13:25
  TRACK 480 AUDIO
    TITLE "10:cjc171_01740"
    INDEX 01 10:13:70
  TRACK 481 AUDIO
    TITLE "0:"
    INDEX 01 10:16:12
  TRACK 482 AUDIO
    TITLE "8:cjc171_01741"
    INDEX 01 10:17:13
  TRACK 483 AUDIO
    TITLE "0:"
    INDEX 01 10:18:20
  TRACK 484 AUDIO
    TITLE "9:cjc171_01742"
    INDEX 01 10:18:50
  TRACK 485 AUDIO
    TITLE "0:"
    INDEX 01 10:20:47
  TRACK 486 AUDIO
    TITLE "10:cjc171_01743"
    INDEX 01 10:21:29
  TRACK 487 AUDIO
    TITLE "0:"
    INDEX 01 10:23:28
  TRACK 488 AUDIO
    TITLE "8:cjc171_01744"
    INDEX 01 10:24:29
  TRACK 489 AUDIO
    TITLE "0:"
    INDEX 01 10:25:38
  TRACK 490 AUDIO
    TITLE "9:cjc171_01745"
    INDEX 01 10:25:68
  TRACK 491 AUDIO
    TITLE "0:"
    INDEX 01 10:28:46
  TRACK 492 AUDIO
    TITLE "10:cjc171_01746"
    INDEX 01 10:29:24
  TRACK 493 AUDIO
    TITLE "0:"
    INDEX 01 10:32:03
  TRACK 494 AUDIO
    TITLE "8:cjc171_01747"
    INDEX 01 10:33:06
  TRACK 495 AUDIO
    TITLE "0:"
    INDEX 01 10:34:10
  TRACK 496 AUDIO
    TITLE "9:cjc171_01748"
    INDEX 01 10:34:37
  TRACK 497 AUDIO
    TITLE "0:"
    INDEX 01 10:37:04
  TRACK 498 AUDIO
    TITLE "10:cjc171_01749"
    INDEX 01 10:37:59
  TRACK 499 AUDIO
    TITLE "0:"
    INDEX 01 10:40:28
  TRACK 500 AUDIO
    TITLE "8:cjc171_01750"
    INDEX 01 10:41:31
  TRACK 501 AUDIO
    TITLE "0:"
    INDEX 01 10:42:48
  TRACK 502 AUDIO
    TITLE "9:cjc171_01751"
    INDEX 01 10:43:05
  TRACK 503 AUDIO
    TITLE "0:"
    INDEX 01 10:45:45
  TRACK 504 AUDIO
    TITLE "10:cjc171_01752"
    INDEX 01 10:46:25
  TRACK 505 AUDIO
    TITLE "0:"
    INDEX 01 10:48:65
  TRACK 506 AUDIO
    TITLE "8:cjc171_01753"
    INDEX 01 10:49:70
  TRACK 507 AUDIO
    TITLE "0:"
    INDEX 01 10:51:02
  TRACK 508 AUDIO
    TITLE "9:cjc171_01754"
    INDEX 01 10:51:34
  TRACK 509 AUDIO
    TITLE "0:"
    INDEX 01 10:53:23
  TRACK 510 AUDIO
    TITLE "10:cjc171_01755"
    INDEX 01 10:54:07
  TRACK 511 AUDIO
    TITLE "0:"
    INDEX 01 10:55:69
  TRACK 512 AUDIO
    TITLE "8:cjc171_01756"
    INDEX 01 10:56:72
  TRACK 513 AUDIO
    TITLE "0:"
    INDEX 01 10:58:20
  TRACK 514 AUDIO
    TITLE "9:cjc171_01757"
    INDEX 01 10:58:49
  TRACK 515 AUDIO
    TITLE "0:"
    INDEX 01 11:01:36
  TRACK 516 AUDIO
    TITLE "10:cjc171_01758"
    INDEX 01 11:02:18
  TRACK 517 AUDIO
    TITLE "0:"
    INDEX 01 11:05:04
  TRACK 518 AUDIO
    TITLE "8:cjc171_01759"
    INDEX 01 11:06:10
  TRACK 519 AUDIO
    TITLE "0:"
    INDEX 01 11:07:33
  TRACK 520 AUDIO
    TITLE "9:cjc171_01760"
    INDEX 01 11:07:62
  TRACK 521 AUDIO
    TITLE "0:"
    INDEX 01 11:10:07
  TRACK 522 AUDIO
    TITLE "10:cjc171_01761"
    INDEX 01 11:10:62
  TRACK 523 AUDIO
    TITLE "0:"
    INDEX 01 11:13:08
  TRACK 524 AUDIO
    TITLE "8:cjc171_01762"
    INDEX 01 11:14:13
  TRACK 525 AUDIO
    TITLE "0:"
    INDEX 01 11:15:38
  TRACK 526 AUDIO
    TITLE "9:cjc171_01763"
    INDEX 01 11:15:67
  TRACK 527 AUDIO
    TITLE "0:"
    INDEX 01 11:17:43
  TRACK 528 AUDIO
    TITLE "10:cjc171_01764"
    INDEX 01 11:18:23
  TRACK 529 AUDIO
    TITLE "0:"
    INDEX 01 11:19:73
  TRACK 530 AUDIO
    TITLE "8:cjc171_01765"
    INDEX 01 11:21:01
  TRACK 531 AUDIO
    TITLE "0:"
    INDEX 01 11:22:19
  TRACK 532 AUDIO
    TITLE "9:cjc171_01766"
    INDEX 01 11:22:48
  TRACK 533 AUDIO
    TITLE "0:"
    INDEX 01 11:25:01
  TRACK 534 AUDIO
    TITLE "10:cjc171_01767"
    INDEX 01 11:25:56
  TRACK 535 AUDIO
    TITLE "0:"
    INDEX 01 11:28:11
  TRACK 536 AUDIO
    TITLE "8:cjc171_01768"
    INDEX 01 11:29:17
  TRACK 537 AUDIO
    TITLE "0:"
    INDEX 01 11:30:47
  TRACK 538 AUDIO
    TITLE "9:cjc171_01769"
    INDEX 01 11:31:02
  TRACK 539 AUDIO
    TITLE "0:"
    INDEX 01 11:33:54
  TRACK 540 AUDIO
    TITLE "10:cjc171_01770"
    INDEX 01 11:34:35
  TRACK 541 AUDIO
    TITLE "0:"
    INDEX 01 11:37:12
  TRACK 542 AUDIO
    TITLE "8:cjc171_01771"
    INDEX 01 11:38:14
  TRACK 543 AUDIO
    TITLE "0:"
    INDEX 01 11:39:37
  TRACK 544 AUDIO
    TITLE "9:cjc171_01772"
    INDEX 01 11:39:58
  TRACK 545 AUDIO
    TITLE "0:"
    INDEX 01 11:42:09
  TRACK 546 AUDIO
    TITLE "10:cjc171_01773"
    INDEX 01 11:42:55
  TRACK 547 AUDIO
    TITLE "0:"
    INDEX 01 11:45:06
  TRACK 548 AUDIO
    TITLE "8:cjc171_01774"
    INDEX 01 11:46:01
  TRACK 549 AUDIO
    TITLE "0:"
    INDEX 01 11:47:24
  TRACK 550 AUDIO
    TITLE "9:cjc171_01775"
    INDEX 01 11:47:52
  TRACK 551 AUDIO
    TITLE "0:"
    INDEX 01 11:49:68
  TRACK 552 AUDIO
    TITLE "10:cjc171_01776"
    INDEX 01 11:50:44
  TRACK 553 AUDIO
    TITLE "0:"
    INDEX 01 11:52:61
  TRACK 554 AUDIO
    TITLE "8:cjc171_01777"
    INDEX 01 11:53:56
  TRACK 555 AUDIO
    TITLE "0:"
    INDEX 01 11:55:08
  TRACK 556 AUDIO
    TITLE "9:cjc171_01778"
    INDEX 01 11:55:39
  TRACK 557 AUDIO
    TITLE "0:"
    INDEX 01 11:58:36
  TRACK 558 AUDIO
    TITLE "10:cjc171_01779"
    INDEX 01 11:59:12
  TRACK 559 AUDIO
    TITLE "0:"
    INDEX 01 12:02:10
  TRACK 560 AUDIO
    TITLE "8:cjc171_01780"
    INDEX 01 12:03:04
  TRACK 561 AUDIO
    TITLE "0:"
    INDEX 01 12:04:17
  TRACK 562 AUDIO
    TITLE "9:cjc171_01781"
    INDEX 01 12:04:40
  TRACK 563 AUDIO
    TITLE "0:"
    INDEX 01 12:07:13
  TRACK 564 AUDIO
    TITLE "10:cjc171_01782"
    INDEX 01 12:07:62
  TRACK 565 AUDIO
    TITLE "0:"
    INDEX 01 12:10:35
  TRACK 566 AUDIO
    TITLE "8:cjc171_01783"
    INDEX 01 12:11:35
  TRACK 567 AUDIO
    TITLE "0:"
    INDEX 01 12:12:40
  TRACK 568 AUDIO
    TITLE "9:cjc171_01784"
    INDEX 01 12:12:63
  TRACK 569 AUDIO
    TITLE "0:"
    INDEX 01 12:14:45
  TRACK 570 AUDIO
    TITLE "10:cjc171_01785"
    INDEX 01 12:15:23
  TRACK 571 AUDIO
    TITLE "0:"
    INDEX 01 12:17:04
  TRACK 572 AUDIO
    TITLE "8:cjc171_01786"
    INDEX 01 12:18:07
  TRACK 573 AUDIO
    TITLE "0:"
    INDEX 01 12:19:20
  TRACK 574 AUDIO
    TITLE "9:cjc171_01787"
    INDEX 01 12:19:42
  TRACK 575 AUDIO
    TITLE "0:"
    INDEX 01 12:21:68
  TRACK 576 AUDIO
    TITLE "10:cjc171_01788"
    INDEX 01 12:22:36
  TRACK 577 AUDIO
    TITLE "0:"
    INDEX 01 12:24:63
  TRACK 578 AUDIO
    TITLE "8:cjc171_01789"
    INDEX 01 12:25:56
  TRACK 579 AUDIO
    TITLE "0:"
    INDEX 01 12:27:02
  TRACK 580 AUDIO
    TITLE "9:cjc171_01790"
    INDEX 01 12:27:22
  TRACK 581 AUDIO
    TITLE "0:"
    INDEX 01 12:29:27
  TRACK 582 AUDIO
    TITLE "10:cjc171_01791"
    INDEX 01 12:29:72
  TRACK 583 AUDIO
    TITLE "0:"
    INDEX 01 12:32:01
  TRACK 584 AUDIO
    TITLE "8:cjc171_01792"
    INDEX 01 12:32:72
  TRACK 585 AUDIO
    TITLE "0:"
    INDEX 01 12:34:14
  TRACK 586 AUDIO
    TITLE "9:cjc171_01793"
    INDEX 01 12:34:36
  TRACK 587 AUDIO
    TITLE "0:"
    INDEX 01 12:36:27
  TRACK 588 AUDIO
    TITLE "10:cjc171_01794"
    INDEX 01 12:36:72
  TRACK 589 AUDIO
    TITLE "0:"
    INDEX 01 12:38:63
  TRACK 590 AUDIO
    TITLE "8:cjc171_01795"
    INDEX 01 12:39:60
  TRACK 591 AUDIO
    TITLE "0:"
    INDEX 01 12:41:10
  TRACK 592 AUDIO
    TITLE "9:cjc171_01796"
    INDEX 01 12:41:32
  TRACK 593 AUDIO
    TITLE "0:"
    INDEX 01 12:43:70
  TRACK 594 AUDIO
    TITLE "10:cjc171_01797"
    INDEX 01 12:44:40
  TRACK 595 AUDIO
    TITLE "0:"
    INDEX 01 12:47:03
  TRACK 596 AUDIO
    TITLE "8:cjc171_01798"
    INDEX 01 12:48:01
  TRACK 597 AUDIO
    TITLE "0:"
    INDEX 01 12:49:23
  TRACK 598 AUDIO
    TITLE "9:cjc171_01799"
    INDEX 01 12:49:45
  TRACK 599 AUDIO
    TITLE "0:"
    INDEX 01 12:52:08
  TRACK 600 AUDIO
    TITLE "10:cjc171_01800"
    INDEX 01 12:52:51
  TRACK 601 AUDIO
    TITLE "0:"
    INDEX 01 12:55:16
